name analog
datacolumns 19
datarows 46
range 0.451 0.47350000000000003
endheader
time	ground_force_vx	ground_force_vy	ground_force_vz	ground_force_px	ground_force_py	ground_force_pz	l_ground_force_vx	l_ground_force_vy	l_ground_force_vz	l_ground_force_px	l_ground_force_py	l_ground_force_pz	ground_torque_x	ground_torque_y	ground_torque_z	l_ground_torque_x	l_ground_torque_y	l_ground_torque_z
0.451	-0.0	-0.0	-0.0	2.9439468383789062	25.84781646728516	-242.99745178222656	3.4597206115722656	-26.584827423095703	-259.05908203125	-0.0	-0.0	-0.0	-0.0	-0.0	-0.0	76515.5625	-26261.82421875	2847.333740234375
0.4515	-0.0	-0.0	-0.0	3.0356340408325195	25.41206169128418	-243.0368194580078	3.462655067443848	-25.878253936767575	-259.0242919921875	-0.0	-0.0	-0.0	-0.0	-0.0	-0.0	76929.8515625	-26779.353515625	2874.28271484375
0.452	-0.0	-0.0	-0.0	3.48162579536438	25.765926361083984	-245.47918701171875	3.5455574989318848	-25.69588851928711	-259.4309997558594	-0.0	-0.0	-0.0	-0.0	-0.0	-0.0	76466.6875	-26615.505859375	2901.148681640625
0.4525	-0.0	-0.0	-0.0	4.183130741119385	26.10057640075684	-244.4391632080078	3.187791109085083	-25.3685245513916	-258.7327880859375	-0.0	-0.0	-0.0	-0.0	-0.0	-0.0	76712.140625	-26646.884765625	2902.8994140625
0.453	-0.0	-0.0	-0.0	4.016948223114014	26.45936393737793	-245.12646484375	3.5425636768341064	-25.77532768249512	-259.4081420898437	-0.0	-0.0	-0.0	-0.0	-0.0	-0.0	76607.421875	-27197.4375	2783.41162109375
0.4535	-0.0	-0.0	-0.0	4.207380294799805	25.76592254638672	-245.11642456054688	3.542684555053711	-24.83841896057129	-258.3721923828125	-0.0	-0.0	-0.0	-0.0	-0.0	-0.0	76556.984375	-27304.57421875	2871.70068359375
0.454	-0.0	-0.0	-0.0	4.80511474609375	26.46193504333496	-245.80352783203125	3.4568116664886475	-25.1543025970459	-257.67388916015625	-0.0	-0.0	-0.0	-0.0	-0.0	-0.0	76637.859375	-27491.55859375	2728.07958984375
0.4545	-0.0	-0.0	-0.0	5.519092082977295	26.38020896911621	-245.78482055664065	3.63999342918396	-24.98935890197754	-260.0057678222656	-0.0	-0.0	-0.0	-0.0	-0.0	-0.0	76698.484375	-27533.400390625	2755.95068359375
0.455	-0.0	-0.0	-0.0	5.434608936309815	26.394641876220703	-247.8845977783203	4.0063323974609375	-24.986467361450195	-257.66259765625	-0.0	-0.0	-0.0	-0.0	-0.0	-0.0	76170.6953125	-27750.15234375	2900.700439453125
0.4555	-0.0	-0.0	-0.0	5.878109455108643	26.90271759033203	-245.4794158935547	4.166502475738525	-24.382568359375	-255.9167022705078	-0.0	-0.0	-0.0	-0.0	-0.0	-0.0	76517.1015625	-27574.8203125	2930.596435546875
0.456	-0.0	-0.0	-0.0	5.984260082244873	26.46934700012207	-246.185302734375	4.607272624969482	-24.185983657836918	-255.52301025390625	-0.0	-0.0	-0.0	-0.0	-0.0	-0.0	76118.4921875	-27608.6015625	2903.25830078125
0.4565	-0.0	-0.0	-0.0	6.425569534301758	25.94417762756348	-247.24505615234372	4.873352527618408	-23.758533477783203	-255.60157775878903	-0.0	-0.0	-0.0	-0.0	-0.0	-0.0	76099.1796875	-27933.541015625	2902.587646484375
0.457	-0.0	-0.0	-0.0	6.782441139221191	26.38991928100586	-245.88092041015625	4.985201358795166	-23.50800323486328	-255.5789794921875	-0.0	-0.0	-0.0	-0.0	-0.0	-0.0	75955.4921875	-27874.857421875	2907.55908203125
0.4575	-0.0	-0.0	-0.0	6.9679460525512695	25.936946868896484	-247.55084228515625	5.2367753982543945	-23.670211791992188	-252.1321563720703	-0.0	-0.0	-0.0	-0.0	-0.0	-0.0	76013.109375	-28090.748046875	2935.4013671875
0.458	-0.0	-0.0	-0.0	7.332191467285156	26.57052421569824	-246.58660888671875	5.325521945953369	-23.316925048828125	-252.1327209472656	-0.0	-0.0	-0.0	-0.0	-0.0	-0.0	75927.4453125	-27969.470703125	3024.558837890625
0.4585	-0.0	-0.0	-0.0	7.33178186416626	26.38731384277344	-248.57327270507807	5.671855926513672	-23.060375213623047	-255.2409210205078	-0.0	-0.0	-0.0	-0.0	-0.0	-0.0	75651.5625	-28345.689453125	3026.73486328125
0.459	-0.0	-0.0	-0.0	8.200217247009277	26.302993774414062	-245.49778747558597	6.018137454986572	-23.2172966003418	-253.12374877929688	-0.0	-0.0	-0.0	-0.0	-0.0	-0.0	75939.640625	-28396.322265625	2996.35009765625
0.4595	-0.0	-0.0	-0.0	8.122994422912598	26.7246208190918	-246.24302673339844	5.85203742980957	-23.20284843444824	-255.8602600097656	-0.0	-0.0	-0.0	-0.0	-0.0	-0.0	76145.3671875	-28464.84375	3050.78125
0.46	-0.0	-0.0	-0.0	8.744988441467285	26.20904922485352	-250.01405334472656	5.868981838226318	-23.22860336303711	-255.5789794921875	-0.0	-0.0	-0.0	-0.0	-0.0	-0.0	76523.5390625	-28629.271484375	3025.8876953125
0.4605	-0.0	-0.0	-0.0	9.087557792663574	26.38021850585937	-246.86334228515625	6.467372417449951	-23.562108993530277	-256.62646484375	-0.0	-0.0	-0.0	-0.0	-0.0	-0.0	76751.2890625	-28663.310546875	3197.5859375
0.461	-0.0	-0.0	-0.0	9.44422435760498	26.835498809814453	-249.3163146972656	6.481632709503174	-23.140281677246094	-256.6490783691406	-0.0	-0.0	-0.0	-0.0	-0.0	-0.0	77045.328125	-28773.212890625	3293.361572265625
0.4615	-0.0	-0.0	-0.0	9.712160110473633	26.574989318847656	-249.34503173828125	7.010964393615723	-22.88651657104492	-258.0119934082031	-0.0	-0.0	-0.0	-0.0	-0.0	-0.0	76721.1484375	-28743.7109375	3382.754638671875
0.462	-0.0	-0.0	-0.0	9.902366638183594	27.527000427246094	-252.4858856201172	7.443190574645996	-23.49921989440918	-256.6488037109375	-0.0	-0.0	-0.0	-0.0	-0.0	-0.0	77201.5	-28774.55859375	3326.442626953125
0.4625	-0.0	-0.0	-0.0	9.824787139892578	27.09564208984375	-251.13856506347656	7.706714153289795	-23.758533477783203	-257.70672607421875	-0.0	-0.0	-0.0	-0.0	-0.0	-0.0	77344.5390625	-28759.90625	3674.99755859375
0.463	-0.0	-0.0	-0.0	9.299129486083984	26.56085968017578	-252.15179443359372	7.9036993980407715	-24.114620208740234	-258.3611145019531	-0.0	-0.0	-0.0	-0.0	-0.0	-0.0	77119.390625	-28649.001953125	3739.046630859375
0.4635	-0.0	-0.0	-0.0	9.629942893981934	26.84740257263184	-249.3734893798828	7.983970642089844	-24.727235794067383	-259.419677734375	-0.0	-0.0	-0.0	-0.0	-0.0	-0.0	77603.578125	-28802.08984375	3859.533447265625
0.464	-0.0	-0.0	-0.0	9.72628116607666	27.365365982055664	-250.75775146484372	7.379727840423584	-25.003366470336918	-260.11798095703125	-0.0	-0.0	-0.0	-0.0	-0.0	-0.0	77817.3984375	-28490.146484375	4148.13330078125
0.4645	-0.0	-0.0	-0.0	9.895277976989746	27.62334251403809	-248.9637908935547	7.734728813171387	-25.78713035583496	-259.4972229003906	-0.0	-0.0	-0.0	-0.0	-0.0	-0.0	77730.34375	-28076.33984375	4300.2373046875
0.465	-0.0	-0.0	-0.0	9.540724754333496	27.36543083190918	-249.30702209472656	8.078384399414062	-26.140380859375	-262.1567687988281	-0.0	-0.0	-0.0	-0.0	-0.0	-0.0	77481.3671875	-28160.013671875	4274.54150390625
0.4655	-0.0	-0.0	-0.0	8.5852632522583	27.454500198364254	-248.2669677734375	8.166974067687988	-26.408184051513672	-261.8197631835937	-0.0	-0.0	-0.0	-0.0	-0.0	-0.0	77506.4140625	-27635.4296875	4478.37060546875
0.466	-0.0	-0.0	-0.0	8.824748992919922	27.358308792114254	-247.55105590820312	8.593685150146484	-26.7558650970459	-259.74664306640625	-0.0	-0.0	-0.0	-0.0	-0.0	-0.0	77196.21875	-27317.791015625	4539.79736328125
0.4665	-0.0	-0.0	-0.0	8.388093948364258	27.91163825988769	-245.813232421875	8.438555717468262	-26.755979537963867	-258.0013732910156	-0.0	-0.0	-0.0	-0.0	-0.0	-0.0	77188.6484375	-27094.23828125	4803.85791015625
0.467	-0.0	-0.0	-0.0	8.378782272338867	27.813352584838867	-244.0380859375	8.524596214294434	-26.604251861572266	-258.4380187988281	-0.0	-0.0	-0.0	-0.0	-0.0	-0.0	76526.6484375	-26345.86328125	4718.68310546875
0.4675	-0.0	-0.0	-0.0	7.317631721496582	27.98457908630371	-243.31283569335935	8.161392211914062	-27.10633087158203	-258.4165954589844	-0.0	-0.0	-0.0	-0.0	-0.0	-0.0	76810.171875	-25775.068359375	4684.89404296875
0.468	-0.0	-0.0	-0.0	6.3408732414245605	28.33885383605957	-244.03819274902344	6.647787094116211	-27.20307922363281	-260.1288452148437	-0.0	-0.0	-0.0	-0.0	-0.0	-0.0	76816.734375	-24936.6640625	4241.623046875
0.4685	-0.0	-0.0	-0.0	5.967764377593994	27.71722221374512	-242.63461303710935	4.421606540679932	-27.636363983154297	-259.7468566894531	-0.0	-0.0	-0.0	-0.0	-0.0	-0.0	76565.984375	-24281.765625	3695.744140625
0.46900000000000003	-0.0	-0.0	-0.0	4.181070804595947	27.893091201782227	-240.86871337890625	2.200878381729126	-28.006383895874023	-256.2440490722656	-0.0	-0.0	-0.0	-0.0	-0.0	-0.0	75736.125	-23254.77734375	2841.25830078125
0.46950000000000003	-0.0	-0.0	-0.0	2.502502202987671	27.358428955078125	-240.5155334472656	0.0832009688019752	-28.351261138916016	-254.21490478515625	-0.0	-0.0	-0.0	-0.0	-0.0	-0.0	75357.6328125	-22621.61328125	2420.703125
0.47000000000000003	-0.0	-0.0	-0.0	2.230262756347656	27.63741111755371	-239.4467620849609	-0.6209754943847656	-28.43681526184082	-254.91351318359372	-0.0	-0.0	-0.0	-0.0	-0.0	-0.0	75426.8125	-22076.861328125	1981.685791015625
0.47050000000000003	-0.0	-0.0	-0.0	2.058659076690674	27.45897483825684	-239.8091735839844	-0.962203085422516	-28.530614852905277	-257.2818908691406	-0.0	-0.0	-0.0	-0.0	-0.0	-0.0	75959.8203125	-21806.015625	2095.484375
0.47100000000000003	-0.0	-0.0	-0.0	2.2279582023620605	27.815593719482425	-240.50640869140625	-0.6292389035224915	-28.351261138916016	-259.39801025390625	-0.0	-0.0	-0.0	-0.0	-0.0	-0.0	76285.5703125	-21661.732421875	2066.071044921875
0.47150000000000003	-0.0	-0.0	-0.0	2.5800883769989014	27.726564407348636	-240.9242706298828	-1.2558913230895996	-28.519577026367188	-260.0411682128906	-0.0	-0.0	-0.0	-0.0	-0.0	-0.0	76175.734375	-21007.2265625	1830.10107421875
0.47200000000000003	-0.0	-0.0	-0.0	2.0358948707580566	27.902368545532227	-242.62559509277344	-2.134514331817627	-28.265655517578125	-258.3721923828125	-0.0	-0.0	-0.0	-0.0	-0.0	-0.0	75702.1796875	-20879.84765625	1351.28759765625
0.47250000000000003	-0.0	-0.0	-0.0	1.326635479927063	28.240522384643555	-243.6759033203125	-2.9357166290283203	-28.257455825805664	-258.04473876953125	-0.0	-0.0	-0.0	-0.0	-0.0	-0.0	76077.265625	-20864.279296875	1030.817626953125
0.47300000000000003	-0.0	-0.0	-0.0	-0.3451630175113678	28.768115997314453	-243.33172607421875	-2.933027029037476	-27.906879425048828	-256.6155090332031	-0.0	-0.0	-0.0	-0.0	-0.0	-0.0	75539.03125	-20811.798828125	941.93798828125
0.47350000000000003	-0.0	-0.0	-0.0	-0.3591172099113464	28.512636184692383	-241.6020965576172	-2.6395208835601807	-28.42601585388184	-256.2665710449219	-0.0	-0.0	-0.0	-0.0	-0.0	-0.0	75561.28125	-20970.056640625	1119.04736328125
